<svg width="11" height="18" viewBox="0 0 11 18" fill="none" xmlns="http://www.w3.org/2000/svg">
<path d="M1.69354 17.5016C1.9114 17.5022 2.12667 17.461 2.32351 17.3809C2.52036 17.3009 2.69378 17.1841 2.83104 17.0391L9.87479 9.53907C10.0893 9.3154 10.2065 9.03485 10.2065 8.74532C10.2065 8.45578 10.0893 8.17523 9.87479 7.95156L2.58312 0.451565C2.33558 0.196295 1.97988 0.035764 1.59426 0.00528937C1.20864 -0.0251853 0.824686 0.0768921 0.52687 0.289065C0.229054 0.501238 0.0417686 0.806128 0.0062148 1.13666C-0.029339 1.46719 0.0897507 1.79629 0.337286 2.05157L6.85604 8.75157L0.556037 15.4516C0.377707 15.635 0.264428 15.8585 0.229604 16.0954C0.19478 16.3323 0.239867 16.5729 0.359532 16.7885C0.479196 17.0042 0.66843 17.186 0.904841 17.3123C1.14125 17.4387 1.41495 17.5044 1.69354 17.5016Z" fill="black"/>
</svg>
