<svg width="34" height="34" viewBox="0 0 34 34" fill="none" xmlns="http://www.w3.org/2000/svg">
<path d="M9.7999 25.2C8.2599 25.2 7.0139 26.46 7.0139 28C7.0139 29.54 8.2599 30.8 9.7999 30.8C11.3399 30.8 12.5999 29.54 12.5999 28C12.5999 26.46 11.3399 25.2 9.7999 25.2ZM1.3999 2.80005V5.60005H4.1999L9.2399 16.226L7.3499 19.656C7.1259 20.048 6.9999 20.51 6.9999 21C6.9999 22.54 8.2599 23.8 9.7999 23.8H26.5999V21H10.3879C10.1919 21 10.0379 20.846 10.0379 20.65L10.0799 20.482L11.3399 18.2H21.7699C22.8199 18.2 23.7439 17.626 24.2199 16.758L29.2319 7.67205C29.3474 7.45839 29.4055 7.21842 29.4006 6.97559C29.3956 6.73276 29.3278 6.49536 29.2036 6.28659C29.0795 6.07783 28.9033 5.90483 28.6924 5.78449C28.4814 5.66416 28.2428 5.60061 27.9999 5.60005H7.2939L5.9779 2.80005H1.3999ZM23.7999 25.2C22.2599 25.2 21.0139 26.46 21.0139 28C21.0139 29.54 22.2599 30.8 23.7999 30.8C25.3399 30.8 26.5999 29.54 26.5999 28C26.5999 26.46 25.3399 25.2 23.7999 25.2Z" fill="#666666"/>
</svg>
