<svg width="32" height="32" viewBox="0 0 32 32" fill="none" xmlns="http://www.w3.org/2000/svg">
<path d="M10.4 24.4C8.86 24.4 7.614 25.66 7.614 27.2C7.614 28.74 8.86 30 10.4 30C11.94 30 13.2 28.74 13.2 27.2C13.2 25.66 11.94 24.4 10.4 24.4ZM2 2V4.8H4.8L9.84 15.426L7.95 18.856C7.726 19.248 7.6 19.71 7.6 20.2C7.6 21.74 8.86 23 10.4 23H27.2V20.2H10.988C10.792 20.2 10.638 20.046 10.638 19.85L10.68 19.682L11.94 17.4H22.37C23.42 17.4 24.344 16.826 24.82 15.958L29.832 6.872C29.9475 6.65834 30.0056 6.41837 30.0007 6.17554C29.9957 5.93271 29.9279 5.69531 29.8037 5.48654C29.6796 5.27778 29.5034 5.10478 29.2924 4.98444C29.0815 4.86411 28.8429 4.80056 28.6 4.8H7.894L6.578 2H2ZM24.4 24.4C22.86 24.4 21.614 25.66 21.614 27.2C21.614 28.74 22.86 30 24.4 30C25.94 30 27.2 28.74 27.2 27.2C27.2 25.66 25.94 24.4 24.4 24.4Z" fill="#666666"/>
</svg>
