<svg width="25" height="19" viewBox="0 0 25 19" fill="none" xmlns="http://www.w3.org/2000/svg">
<path d="M10.9375 13.4089C10.9375 13.8624 10.8093 14.2479 10.553 14.5654C10.2966 14.8829 9.98942 15.0417 9.63135 15.0417H4.43115C4.07308 15.0417 3.76587 14.8829 3.50952 14.5654C3.25317 14.2479 3.125 13.8624 3.125 13.4089C3.125 12.9635 3.15552 12.5492 3.21655 12.1657C3.27759 11.7822 3.37728 11.4111 3.51562 11.0524C3.65397 10.6937 3.86149 10.4112 4.13818 10.2051C4.41488 9.99892 4.74447 9.89583 5.12695 9.89583C5.64779 10.4236 6.28255 10.6875 7.03125 10.6875C7.77995 10.6875 8.41471 10.4236 8.93555 9.89583C9.31803 9.89583 9.64762 9.99892 9.92432 10.2051C10.201 10.4112 10.4085 10.6937 10.5469 11.0524C10.6852 11.4111 10.7849 11.7822 10.8459 12.1657C10.907 12.5492 10.9375 12.9635 10.9375 13.4089ZM9.375 7.91667C9.375 8.57639 9.14714 9.13715 8.69141 9.59896C8.23568 10.0608 7.68229 10.2917 7.03125 10.2917C6.38021 10.2917 5.82682 10.0608 5.37109 9.59896C4.91536 9.13715 4.6875 8.57639 4.6875 7.91667C4.6875 7.25694 4.91536 6.69618 5.37109 6.23438C5.82682 5.77257 6.38021 5.54167 7.03125 5.54167C7.68229 5.54167 8.23568 5.77257 8.69141 6.23438C9.14714 6.69618 9.375 7.25694 9.375 7.91667ZM21.875 13.0625V13.8542C21.875 13.9696 21.8384 14.0645 21.7651 14.1387C21.6919 14.2129 21.5983 14.25 21.4844 14.25H12.8906C12.7767 14.25 12.6831 14.2129 12.6099 14.1387C12.5366 14.0645 12.5 13.9696 12.5 13.8542V13.0625C12.5 12.947 12.5366 12.8522 12.6099 12.778C12.6831 12.7038 12.7767 12.6667 12.8906 12.6667H21.4844C21.5983 12.6667 21.6919 12.7038 21.7651 12.778C21.8384 12.8522 21.875 12.947 21.875 13.0625ZM17.1875 9.89583V10.6875C17.1875 10.803 17.1509 10.8978 17.0776 10.972C17.0044 11.0462 16.9108 11.0833 16.7969 11.0833H12.8906C12.7767 11.0833 12.6831 11.0462 12.6099 10.972C12.5366 10.8978 12.5 10.803 12.5 10.6875V9.89583C12.5 9.78038 12.5366 9.68555 12.6099 9.61133C12.6831 9.53711 12.7767 9.5 12.8906 9.5H16.7969C16.9108 9.5 17.0044 9.53711 17.0776 9.61133C17.1509 9.68555 17.1875 9.78038 17.1875 9.89583ZM21.875 9.89583V10.6875C21.875 10.803 21.8384 10.8978 21.7651 10.972C21.6919 11.0462 21.5983 11.0833 21.4844 11.0833H19.1406C19.0267 11.0833 18.9331 11.0462 18.8599 10.972C18.7866 10.8978 18.75 10.803 18.75 10.6875V9.89583C18.75 9.78038 18.7866 9.68555 18.8599 9.61133C18.9331 9.53711 19.0267 9.5 19.1406 9.5H21.4844C21.5983 9.5 21.6919 9.53711 21.7651 9.61133C21.8384 9.68555 21.875 9.78038 21.875 9.89583ZM21.875 6.72917V7.52083C21.875 7.63628 21.8384 7.73112 21.7651 7.80534C21.6919 7.87956 21.5983 7.91667 21.4844 7.91667H12.8906C12.7767 7.91667 12.6831 7.87956 12.6099 7.80534C12.5366 7.73112 12.5 7.63628 12.5 7.52083V6.72917C12.5 6.61372 12.5366 6.51888 12.6099 6.44466C12.6831 6.37044 12.7767 6.33333 12.8906 6.33333H21.4844C21.5983 6.33333 21.6919 6.37044 21.7651 6.44466C21.8384 6.51888 21.875 6.61372 21.875 6.72917ZM23.4375 17.0208V3.16667H1.5625V17.0208C1.5625 17.128 1.60116 17.2208 1.67847 17.2992C1.75578 17.3775 1.84733 17.4167 1.95312 17.4167H23.0469C23.1527 17.4167 23.2442 17.3775 23.3215 17.2992C23.3988 17.2208 23.4375 17.128 23.4375 17.0208ZM25 1.97917V17.0208C25 17.5651 24.8088 18.031 24.4263 18.4186C24.0438 18.8062 23.584 19 23.0469 19H1.95312C1.41602 19 0.956217 18.8062 0.57373 18.4186C0.191243 18.031 0 17.5651 0 17.0208V1.97917C0 1.4349 0.191243 0.968967 0.57373 0.58138C0.956217 0.193793 1.41602 0 1.95312 0H23.0469C23.584 0 24.0438 0.193793 24.4263 0.58138C24.8088 0.968967 25 1.4349 25 1.97917Z" fill="#666666"/>
</svg>
