<svg width="25" height="25" viewBox="0 0 25 25" fill="none" xmlns="http://www.w3.org/2000/svg">
<path d="M11.4583 0C10.3187 0 9.375 1.07857 9.375 2.38095V3.57143H0V25H25V3.57143H15.625V2.38095C15.625 1.07857 14.6812 0 13.5417 0H11.4583ZM11.4583 2.38095H13.5417V4.7619H11.4583V2.38095ZM2.08333 5.95238H9.375V7.14286H15.625V5.95238H22.9167V22.619H2.08333V5.95238ZM12.5 8.33333C10.2083 8.33333 8.33333 10.4762 8.33333 13.0952C8.33441 13.7298 8.44699 14.3576 8.6644 14.9414C8.88181 15.5252 9.19961 16.0532 9.59896 16.494C8.89011 17.0376 8.30897 17.7719 7.90665 18.6323C7.50432 19.4928 7.29314 20.453 7.29167 21.4286H9.375C9.375 19.4429 10.7625 17.8571 12.5 17.8571C14.2375 17.8571 15.625 19.4429 15.625 21.4286H17.7083C17.7069 20.453 17.4957 19.4928 17.0934 18.6323C16.691 17.7719 16.1099 17.0376 15.401 16.494C15.8004 16.0532 16.1182 15.5252 16.3356 14.9414C16.553 14.3576 16.6656 13.7298 16.6667 13.0952C16.6667 10.4762 14.7917 8.33333 12.5 8.33333ZM12.5 10.7143C13.6635 10.7143 14.5833 11.7655 14.5833 13.0952C14.5833 14.425 13.6635 15.4762 12.5 15.4762C11.3365 15.4762 10.4167 14.425 10.4167 13.0952C10.4167 11.7655 11.3365 10.7143 12.5 10.7143Z" fill="#666666"/>
</svg>
