<svg width="22" height="22" viewBox="0 0 22 22" fill="none" xmlns="http://www.w3.org/2000/svg">
<path d="M21.9885 11.2059C21.9885 10.3045 21.9137 9.6468 21.7517 8.96472H11.2192V13.0329H17.4015C17.2769 14.0439 16.6039 15.5664 15.1081 16.5895L15.0871 16.7257L18.4173 19.2467L18.648 19.2692C20.7669 17.3569 21.9885 14.5432 21.9885 11.2059" fill="#4285F4"/>
<path d="M11.2192 21.9245C14.248 21.9245 16.7907 20.95 18.648 19.2692L15.108 16.5895C14.1608 17.2351 12.8894 17.6857 11.2192 17.6857C8.25266 17.6857 5.73487 15.7735 4.83735 13.1304L4.70579 13.1413L1.24304 15.76L1.19775 15.8831C3.04247 19.464 6.83166 21.9245 11.2192 21.9245Z" fill="#34A853"/>
<path d="M4.83761 13.1303C4.60079 12.4482 4.46374 11.7174 4.46374 10.9622C4.46374 10.207 4.6008 9.47621 4.82515 8.79413L4.81888 8.64886L1.31274 5.98804L1.19802 6.04136C0.437725 7.52737 0.00146484 9.19609 0.00146484 10.9622C0.00146484 12.7284 0.437725 14.397 1.19802 15.883L4.83761 13.1303" fill="#FBBC05"/>
<path d="M11.2192 4.23869C13.3256 4.23869 14.7466 5.12785 15.5568 5.87089L18.7227 2.85018C16.7783 1.08405 14.248 0 11.2192 0C6.83167 0 3.04247 2.46039 1.19775 6.04135L4.82489 8.79412C5.73488 6.15102 8.25267 4.23869 11.2192 4.23869" fill="#EB4335"/>
</svg>
