<svg width="35" height="32" viewBox="0 0 35 32" fill="none" xmlns="http://www.w3.org/2000/svg">
<path d="M34.1532 6.42553C33.6102 5.16813 32.8271 4.02869 31.848 3.07098C30.8681 2.11042 29.7127 1.34708 28.4448 0.822461C27.13 0.276305 25.7199 -0.00324835 24.2962 2.84767e-05C22.2989 2.84767e-05 20.3501 0.546966 18.6567 1.58007C18.2515 1.82721 17.8666 2.09865 17.502 2.3944C17.1374 2.09865 16.7525 1.82721 16.3474 1.58007C14.6539 0.546966 12.7052 2.84767e-05 10.7078 2.84767e-05C9.26958 2.84767e-05 7.8759 0.275523 6.5592 0.822461C5.28706 1.34914 4.14052 2.10675 3.15603 3.07098C2.17558 4.02761 1.39237 5.16732 0.850792 6.42553C0.287649 7.73413 0 9.12376 0 10.5539C0 11.903 0.275495 13.3088 0.822432 14.739C1.28024 15.9341 1.93656 17.1739 2.7752 18.4257C4.10406 20.4069 5.93123 22.4731 8.20001 24.5677C11.9597 28.0397 15.6829 30.4381 15.8409 30.5354L16.8011 31.1512C17.2265 31.4226 17.7734 31.4226 18.1988 31.1512L19.159 30.5354C19.317 30.4341 23.0362 28.0397 26.7999 24.5677C29.0687 22.4731 30.8959 20.4069 32.2248 18.4257C33.0634 17.1739 33.7238 15.9341 34.1775 14.739C34.7245 13.3088 35 11.903 35 10.5539C35.004 9.12376 34.7164 7.73413 34.1532 6.42553V6.42553Z" fill="#666666"/>
</svg>
