<svg width="25" height="17" viewBox="0 0 25 17" fill="none" xmlns="http://www.w3.org/2000/svg">
<path d="M17.1715 8.53585L23.5791 2.81675V14.1897L17.1715 8.53585ZM8.91495 9.50437L11.165 11.511C11.5182 11.8192 11.9786 12.0054 12.4818 12.0054H12.4995H12.4984H12.513C13.0172 12.0054 13.4776 11.8181 13.835 11.5078L13.8318 11.5099L16.0819 9.5033L22.9218 15.5381H2.07821L8.91495 9.50437ZM2.06884 1.46081H22.9343L12.912 10.4033C12.7993 10.4949 12.6598 10.5447 12.5161 10.5446H12.5016H12.5026H12.488C12.3438 10.5448 12.2039 10.4946 12.0911 10.4023L12.0922 10.4033L2.06884 1.46081ZM1.42193 2.81568L7.82845 8.53478L1.42193 14.1854V2.81568ZM23.9229 0.203337C23.6729 0.0749135 23.3791 0 23.0676 0H1.93654C1.63461 7.40947e-05 1.33683 0.0722494 1.06671 0.210828L1.07817 0.205477C0.754795 0.369335 0.482466 0.622829 0.291944 0.937323C0.101422 1.25182 0.000299334 1.61478 0 1.98521L0 15.0116C0.000551485 15.5388 0.204646 16.0442 0.567503 16.417C0.93036 16.7898 1.42234 16.9994 1.9355 17H23.0645C23.5777 16.9994 24.0696 16.7898 24.4325 16.417C24.7954 16.0442 24.9994 15.5388 25 15.0116V1.98949V1.98521C25 1.20718 24.5635 0.532956 23.9281 0.208688L23.9166 0.203337H23.9229Z" fill="#666666"/>
</svg>
