<svg width="22" height="15" viewBox="0 0 22 15" fill="none" xmlns="http://www.w3.org/2000/svg">
<path d="M15.1103 7.31133L20.7487 2.41267V12.1541L15.1103 7.31133ZM7.84483 8.14092L9.82483 9.85967C10.1356 10.1237 10.5407 10.2832 10.9835 10.2832H10.9991H10.9982H11.011C11.4547 10.2832 11.8598 10.1227 12.1742 9.85692L12.1715 9.85875L14.1515 8.14L20.1703 13.3091H1.82875L7.84483 8.14092ZM1.8205 1.25125H20.1813L11.3621 8.91092C11.2629 8.98935 11.1402 9.03199 11.0137 9.03192H11.0009H11.0018H10.989C10.8621 9.03208 10.739 8.98908 10.6397 8.91L10.6407 8.91092L1.8205 1.25125ZM1.25125 2.41175L6.88875 7.31042L1.25125 12.1504V2.41175ZM21.0512 0.174167C20.8312 0.0641667 20.5727 0 20.2987 0H1.70408C1.4384 6.34654e-05 1.17636 0.0618848 0.938667 0.180583L0.94875 0.176C0.664192 0.316352 0.424552 0.53348 0.2569 0.802858C0.0892473 1.07224 0.000263403 1.38313 0 1.70042L0 12.8581C0.000485287 13.3096 0.180081 13.7426 0.499382 14.0619C0.818682 14.3812 1.25161 14.5608 1.70317 14.5612H20.2959C20.7475 14.5608 21.1804 14.3812 21.4997 14.0619C21.819 13.7426 21.9986 13.3096 21.9991 12.8581V1.70408V1.70042C21.9991 1.034 21.615 0.4565 21.0558 0.17875L21.0457 0.174167H21.0512Z" fill="#666666"/>
</svg>
