<svg width="25" height="25" viewBox="0 0 25 25" fill="none" xmlns="http://www.w3.org/2000/svg">
<path fill-rule="evenodd" clip-rule="evenodd" d="M12.5279 0C9.23129 0 6.22736 1.0362 4.45025 1.8828C4.28969 1.95919 4.14008 2.0342 4.00068 2.10643C3.72481 2.24949 3.48981 2.38284 3.30297 2.50021L5.32457 5.33239L6.27625 5.69283C9.99541 7.4784 14.983 7.4784 18.7029 5.69283L19.783 5.15946L21.6951 2.50021C21.299 2.25435 20.8871 2.03237 20.4617 1.83557C18.6941 0.998 15.7624 0 12.5279 0ZM7.82566 3.20582C7.10979 3.07835 6.40275 2.9095 5.70846 2.70022C7.37317 1.99669 9.85455 1.2501 12.5271 1.2501C14.3787 1.2501 16.1295 1.60847 17.5775 2.06267C15.8807 2.28977 14.07 2.67522 12.3447 3.14957C10.9872 3.52321 9.40061 3.48293 7.82566 3.20582V3.20582ZM19.4736 6.72278L19.2947 6.8089C15.2027 8.77295 9.77573 8.77295 5.68364 6.8089L5.51432 6.72695C-0.632204 13.1448 -5.32493 25 12.5279 25C30.3792 25 25.5719 12.9233 19.4736 6.72278ZM11.7689 12.501C11.3817 12.501 11.0105 12.6474 10.7367 12.9079C10.463 13.1684 10.3092 13.5217 10.3092 13.89C10.3092 14.2584 10.463 14.6117 10.7367 14.8722C11.0105 15.1327 11.3817 15.2791 11.7689 15.2791V12.501ZM13.2285 11.112V10.4175H11.7689V11.112C10.9946 11.112 10.2521 11.4047 9.70463 11.9257C9.15716 12.4467 8.84959 13.1533 8.84959 13.89C8.84959 14.6268 9.15716 15.3334 9.70463 15.8544C10.2521 16.3754 10.9946 16.6681 11.7689 16.6681V19.4461C11.1339 19.4461 10.5931 19.0606 10.3924 18.5203C10.328 18.3466 10.1936 18.2044 10.019 18.1249C9.84436 18.0455 9.64371 18.0353 9.46118 18.0966C9.27865 18.158 9.12921 18.2858 9.04572 18.452C8.96223 18.6182 8.95154 18.8091 9.01599 18.9828C9.21731 19.5245 9.59013 19.9935 10.0831 20.3252C10.5761 20.6569 11.1651 20.8351 11.7689 20.8351V21.5296H13.2285V20.8351C14.0027 20.8351 14.7453 20.5424 15.2927 20.0214C15.8402 19.5004 16.1478 18.7938 16.1478 18.0571C16.1478 17.3203 15.8402 16.6137 15.2927 16.0927C14.7453 15.5717 14.0027 15.2791 13.2285 15.2791V12.501C13.8634 12.501 14.4042 12.8865 14.6057 13.4268C14.6356 13.5152 14.6838 13.597 14.7475 13.6674C14.8111 13.7377 14.889 13.7952 14.9764 13.8364C15.0639 13.8777 15.1591 13.9018 15.2565 13.9074C15.3539 13.9129 15.4515 13.8999 15.5435 13.869C15.6356 13.838 15.7201 13.7898 15.7922 13.7273C15.8643 13.6647 15.9225 13.589 15.9633 13.5046C16.0041 13.4203 16.0268 13.329 16.0299 13.2362C16.033 13.1434 16.0165 13.0509 15.9814 12.9643C15.7801 12.4226 15.4072 11.9536 14.9142 11.6219C14.4212 11.2902 13.8323 11.112 13.2285 11.112ZM13.2285 16.6681V19.4461C13.6156 19.4461 13.9869 19.2997 14.2606 19.0392C14.5344 18.7787 14.6881 18.4254 14.6881 18.0571C14.6881 17.6887 14.5344 17.3354 14.2606 17.0749C13.9869 16.8144 13.6156 16.6681 13.2285 16.6681Z" fill="#7CBB71"/>
</svg>
