<svg width="28" height="31" viewBox="0 0 28 31" fill="none" xmlns="http://www.w3.org/2000/svg">
<path d="M28 25.2936L27.6805 25.0057C26.7742 24.1809 25.981 23.235 25.3221 22.1937C24.6026 20.7565 24.1714 19.1871 24.0537 17.5774V12.8363C24.0599 10.308 23.162 7.86445 21.5287 5.96467C19.8955 4.06489 17.6392 2.83969 15.1839 2.51928V1.28123C15.1839 0.941429 15.0517 0.615543 14.8165 0.375265C14.5813 0.134987 14.2622 0 13.9295 0C13.5969 0 13.2778 0.134987 13.0426 0.375265C12.8073 0.615543 12.6752 0.941429 12.6752 1.28123V2.53847C10.2419 2.88199 8.01286 4.11459 6.40103 6.00799C4.78921 7.90138 3.90377 10.3273 3.90872 12.8363V17.5774C3.79105 19.1871 3.35979 20.7565 2.64027 22.1937C1.99278 23.2324 1.21226 24.1781 0.319463 25.0057L0 25.2936V28H28V25.2936Z" fill="#666666"/>
<path d="M12 29C12.0835 29.5544 12.3827 30.0623 12.8422 30.4299C13.3017 30.7975 13.8906 31 14.5 31C15.1094 31 15.6983 30.7975 16.1578 30.4299C16.6173 30.0623 16.9165 29.5544 17 29H12Z" fill="#666666"/>
</svg>
