<svg width="30" height="31" viewBox="0 0 30 31" fill="none" xmlns="http://www.w3.org/2000/svg">
<path d="M14.038 30.9998C14.5171 30.987 14.9768 30.7793 15.3358 30.4134C15.6949 30.0474 15.9301 29.5467 16 29H12C12.0718 29.5616 12.3181 30.074 12.693 30.4419C13.0679 30.8097 13.5459 31.008 14.038 30.9998V30.9998Z" fill="#666666"/>
<path d="M28 25.3902L27.6805 25.1126C26.7742 24.3173 25.981 23.4052 25.3221 22.401C24.6026 21.0152 24.1714 19.5018 24.0537 17.9496V13.3779C24.0499 12.8226 23.9996 12.2685 23.9034 11.7213C22.3118 11.3991 20.8822 10.5451 19.8565 9.30386C18.8309 8.06261 18.2722 6.5104 18.2752 4.91003V4.32699C17.2942 3.85149 16.2402 3.5388 15.1557 3.40154V2.23548C15.1557 1.90781 15.0236 1.59356 14.7883 1.36186C14.5531 1.13017 14.234 1 13.9013 1C13.5687 1 13.2496 1.13017 13.0144 1.36186C12.7791 1.59356 12.647 1.90781 12.647 2.23548V3.44781C10.2188 3.78519 7.99651 4.97642 6.39041 6.80158C4.78431 8.62675 3.90283 10.9626 3.90872 13.3779V17.9496C3.79105 19.5018 3.35979 21.0152 2.64027 22.401C1.99278 23.4027 1.21226 24.3146 0.319463 25.1126L0 25.3902V28H28V25.3902Z" fill="#666666"/>
<path d="M25 10C27.7614 10 30 7.76142 30 5C30 2.23858 27.7614 0 25 0C22.2386 0 20 2.23858 20 5C20 7.76142 22.2386 10 25 10Z" fill="#BF4545"/>
</svg>
