<svg width="25" height="25" viewBox="0 0 25 25" fill="none" xmlns="http://www.w3.org/2000/svg">
<path d="M0 3.57143C0 2.62423 0.376274 1.71582 1.04605 1.04605C1.71582 0.376274 2.62423 0 3.57143 0H16.0714C17.0186 0 17.927 0.376274 18.5968 1.04605C19.2666 1.71582 19.6429 2.62423 19.6429 3.57143V16.0714H25V19.6429C25 21.0637 24.4356 22.4263 23.4309 23.4309C22.4263 24.4356 21.0637 25 19.6429 25H5.35714C3.93634 25 2.57373 24.4356 1.56907 23.4309C0.564412 22.4263 0 21.0637 0 19.6429V3.57143ZM19.6429 17.8571V23.2143C20.5901 23.2143 21.4985 22.838 22.1682 22.1682C22.838 21.4985 23.2143 20.5901 23.2143 19.6429V17.8571H19.6429ZM17.8571 23.2143V3.57143C17.8571 3.09783 17.669 2.64362 17.3341 2.30874C16.9992 1.97385 16.545 1.78571 16.0714 1.78571H3.57143C3.09783 1.78571 2.64362 1.97385 2.30874 2.30874C1.97385 2.64362 1.78571 3.09783 1.78571 3.57143V19.6429C1.78571 20.5901 2.16199 21.4985 2.83176 22.1682C3.50153 22.838 4.40994 23.2143 5.35714 23.2143H17.8571ZM5.35714 6.25C5.35714 6.0132 5.45121 5.7861 5.61865 5.61865C5.7861 5.45121 6.0132 5.35714 6.25 5.35714H13.3929C13.6297 5.35714 13.8568 5.45121 14.0242 5.61865C14.1916 5.7861 14.2857 6.0132 14.2857 6.25C14.2857 6.4868 14.1916 6.7139 14.0242 6.88135C13.8568 7.04879 13.6297 7.14286 13.3929 7.14286H6.25C6.0132 7.14286 5.7861 7.04879 5.61865 6.88135C5.45121 6.7139 5.35714 6.4868 5.35714 6.25ZM5.35714 11.6071C5.35714 11.3703 5.45121 11.1432 5.61865 10.9758C5.7861 10.8084 6.0132 10.7143 6.25 10.7143H13.3929C13.6297 10.7143 13.8568 10.8084 14.0242 10.9758C14.1916 11.1432 14.2857 11.3703 14.2857 11.6071C14.2857 11.8439 14.1916 12.071 14.0242 12.2385C13.8568 12.4059 13.6297 12.5 13.3929 12.5H6.25C6.0132 12.5 5.7861 12.4059 5.61865 12.2385C5.45121 12.071 5.35714 11.8439 5.35714 11.6071ZM5.35714 16.9643C5.35714 16.7275 5.45121 16.5004 5.61865 16.3329C5.7861 16.1655 6.0132 16.0714 6.25 16.0714H9.82143C10.0582 16.0714 10.2853 16.1655 10.4528 16.3329C10.6202 16.5004 10.7143 16.7275 10.7143 16.9643C10.7143 17.2011 10.6202 17.4282 10.4528 17.5956C10.2853 17.7631 10.0582 17.8571 9.82143 17.8571H6.25C6.0132 17.8571 5.7861 17.7631 5.61865 17.5956C5.45121 17.4282 5.35714 17.2011 5.35714 16.9643Z" fill="#666666"/>
</svg>
