<svg width="25" height="25" viewBox="0 0 25 25" fill="none" xmlns="http://www.w3.org/2000/svg">
<path d="M23.9441 1.79854L23.2012 1.05519C22.525 0.379536 21.6083 0 20.6524 0C19.6966 0 18.7799 0.379536 18.1037 1.05519L3.09137 16.0689L0.115989 23.849C-0.233174 24.7699 0.233071 25.2337 1.15098 24.8828L8.93215 21.9103L23.9441 6.89616C25.3528 5.48946 25.3511 3.20732 23.9441 1.79854V1.79854ZM14.5154 5.75113L15.5604 6.79574L5.24219 17.1151L4.1972 16.0697L14.5154 5.75113V5.75113ZM16.1129 7.34867L17.6525 8.8887L7.33466 19.2077L5.7951 17.6681L16.1129 7.34867ZM3.76095 23.0503L1.9518 21.2394L3.7022 16.6806L8.3184 21.2961L3.76095 23.0503V23.0503ZM8.93215 20.8056L7.88799 19.7602L18.2054 9.44122L19.2504 10.4867L8.93215 20.8056V20.8056ZM19.8524 9.88456L15.1171 5.14987L16.295 3.97151L21.0304 8.7062L19.8524 9.88456Z" fill="#666666"/>
</svg>
