<svg width="27" height="27" viewBox="0 0 27 27" fill="none" xmlns="http://www.w3.org/2000/svg">
<path d="M11.6927 6.30094L7.46401 1.41998C6.97651 0.857517 6.08276 0.860017 5.51652 1.42748L2.03903 4.91102C1.00404 5.94721 0.707792 7.48587 1.30654 8.71955C4.88354 16.1253 10.8565 22.1064 18.2577 25.6935C19.4902 26.2922 21.0277 25.996 22.0627 24.9598L25.5727 21.4438C26.1414 20.8751 26.1427 19.9764 25.5752 19.4889L20.6752 15.2829C20.1627 14.8429 19.3664 14.9004 18.8527 15.4154L17.1477 17.1228C17.0604 17.2143 16.9455 17.2746 16.8206 17.2944C16.6958 17.3143 16.5678 17.2927 16.4565 17.2328C13.6695 15.628 11.3577 13.3133 9.75649 10.5244C9.69653 10.4129 9.67481 10.2847 9.69468 10.1597C9.71455 10.0346 9.77491 9.91946 9.86649 9.83198L11.5665 8.13083C12.0815 7.61336 12.1377 6.81341 11.6927 6.29969V6.30094Z" stroke="#666666" stroke-width="2" stroke-linecap="round" stroke-linejoin="round"/>
</svg>
