<svg width="25" height="25" viewBox="0 0 25 25" fill="none" xmlns="http://www.w3.org/2000/svg">
<path d="M24.6699 15.6777L22.7393 14.1151C22.8307 13.5849 22.8779 13.0436 22.8779 12.5023C22.8779 11.9609 22.8307 11.4196 22.7393 10.8894L24.6699 9.32682C24.8155 9.2088 24.9197 9.05162 24.9687 8.87617C25.0176 8.70072 25.009 8.51531 24.944 8.34461L24.9175 8.27206C24.386 6.86578 23.5901 5.56215 22.5684 4.42413L22.5153 4.36554C22.3914 4.22756 22.2262 4.12837 22.0415 4.08105C21.8568 4.03373 21.6613 4.04049 21.4808 4.10045L19.0845 4.90687C18.2003 4.22044 17.2129 3.67911 16.146 3.29962L15.6832 0.927799C15.6483 0.749333 15.5569 0.585148 15.421 0.457057C15.2852 0.328966 15.1114 0.243032 14.9228 0.210673L14.8432 0.196721C13.3076 -0.0655737 11.6924 -0.0655737 10.1568 0.196721L10.0772 0.210673C9.88858 0.243032 9.7148 0.328966 9.57897 0.457057C9.44315 0.585148 9.3517 0.749333 9.31679 0.927799L8.8511 3.31078C7.79265 3.69035 6.80697 4.23139 5.93316 4.91245L3.51922 4.10045C3.33874 4.04002 3.1431 4.03301 2.95831 4.08036C2.77352 4.12771 2.60833 4.22717 2.48468 4.36554L2.43162 4.42413C1.41107 5.56295 0.615356 6.86637 0.0825336 8.27206L0.0560068 8.34461C-0.0766269 8.6934 0.0324276 9.08406 0.330117 9.32682L2.28425 10.9062C2.19288 11.4308 2.14867 11.9665 2.14867 12.4995C2.14867 13.0352 2.19288 13.571 2.28425 14.0928L0.330117 15.6721C0.184502 15.7901 0.0802831 15.9473 0.0313193 16.1228C-0.0176446 16.2982 -0.00903384 16.4836 0.0560068 16.6543L0.0825336 16.7269C0.616016 18.1332 1.40592 19.4308 2.43162 20.5748L2.48468 20.6334C2.60863 20.7714 2.77383 20.8706 2.95851 20.9179C3.14319 20.9652 3.33868 20.9585 3.51922 20.8985L5.93316 20.0865C6.81149 20.7701 7.79298 21.3115 8.8511 21.6882L9.31679 24.0711C9.3517 24.2496 9.44315 24.4138 9.57897 24.5419C9.7148 24.67 9.88858 24.7559 10.0772 24.7883L10.1568 24.8022C11.7065 25.0659 13.2935 25.0659 14.8432 24.8022L14.9228 24.7883C15.1114 24.7559 15.2852 24.67 15.421 24.5419C15.5569 24.4138 15.6483 24.2496 15.6832 24.0711L16.146 21.6993C17.2125 21.3208 18.2054 20.7777 19.0845 20.0921L21.4808 20.8985C21.6613 20.9589 21.8569 20.9659 22.0417 20.9186C22.2265 20.8712 22.3917 20.7718 22.5153 20.6334L22.5684 20.5748C23.5941 19.428 24.384 18.1332 24.9175 16.7269L24.944 16.6543C25.0766 16.3111 24.9676 15.9205 24.6699 15.6777V15.6777ZM20.6467 11.2187C20.7203 11.64 20.7587 12.0725 20.7587 12.5051C20.7587 12.9376 20.7203 13.3701 20.6467 13.7914L20.4521 14.9104L22.6539 16.6934C22.3201 17.4214 21.8988 18.1105 21.3983 18.7471L18.663 17.8291L17.7376 18.549C17.0331 19.0959 16.2491 19.5256 15.4003 19.827L14.2773 20.226L13.7497 22.9327C12.9173 23.022 12.0768 23.022 11.2444 22.9327L10.7168 20.2204L9.60269 19.8158C8.76268 19.5145 7.98161 19.0848 7.28307 18.5406L6.35758 17.8179L3.6047 18.7443C3.10364 18.1053 2.6851 17.4161 2.3491 16.6906L4.5744 14.8908L4.38281 13.7747C4.31208 13.3589 4.27376 12.9292 4.27376 12.5051C4.27376 12.0781 4.30913 11.6512 4.38281 11.2354L4.5744 10.1193L2.3491 8.31949C2.68216 7.59121 3.10364 6.90478 3.6047 6.26578L6.35758 7.19218L7.28307 6.46948C7.98161 5.92536 8.76268 5.49564 9.60269 5.19428L10.7198 4.79525L11.2473 2.08301C12.0756 1.99372 12.9215 1.99372 13.7527 2.08301L14.2802 4.78967L15.4032 5.1887C16.2491 5.49006 17.0361 5.91977 17.7405 6.46669L18.666 7.1866L21.4012 6.26857C21.9023 6.90757 22.3208 7.59679 22.6568 8.32229L20.4551 10.1053L20.6467 11.2187ZM12.5029 7.31496C9.63806 7.31496 7.31549 9.51377 7.31549 12.226C7.31549 14.9383 9.63806 17.1371 12.5029 17.1371C15.3678 17.1371 17.6904 14.9383 17.6904 12.226C17.6904 9.51377 15.3678 7.31496 12.5029 7.31496ZM14.8373 14.436C14.5311 14.7267 14.1673 14.9572 13.7667 15.1143C13.366 15.2713 12.9366 15.3519 12.5029 15.3512C11.6217 15.3512 10.7934 15.0248 10.1686 14.436C9.86154 14.1461 9.61806 13.8017 9.45214 13.4224C9.28623 13.0431 9.20117 12.6365 9.20184 12.226C9.20184 11.3917 9.54669 10.6076 10.1686 10.016C10.7934 9.42448 11.6217 9.1008 12.5029 9.1008C13.3842 9.1008 14.2124 9.42448 14.8373 10.016C15.1444 10.3059 15.3878 10.6504 15.5538 11.0296C15.7197 11.4089 15.8047 11.8155 15.8041 12.226C15.8041 13.0603 15.4592 13.8444 14.8373 14.436Z" fill="#666666"/>
</svg>
