<svg width="25" height="26" viewBox="0 0 25 26" fill="none" xmlns="http://www.w3.org/2000/svg">
<path d="M24.654 14.0652L16.3203 22.8278C15.5762 23.6102 14.2864 23.0625 14.2864 21.9411V16.9339H7.54006C6.8803 16.9339 6.34952 16.3758 6.34952 15.6821V10.6749C6.34952 9.98119 6.8803 9.42309 7.54006 9.42309H14.2864V4.41588C14.2864 3.29969 15.5712 2.74681 16.3203 3.52918L24.654 12.2918C25.1153 12.7821 25.1153 13.5749 24.654 14.0652ZM9.52428 22.567V20.4807C9.52428 20.1365 9.25641 19.8548 8.92901 19.8548H4.76214C3.88412 19.8548 3.17476 19.1089 3.17476 18.1857V8.17129C3.17476 7.24808 3.88412 6.50222 4.76214 6.50222H8.92901C9.25641 6.50222 9.52428 6.22056 9.52428 5.87632V3.78998C9.52428 3.44573 9.25641 3.16407 8.92901 3.16407H4.76214C2.13304 3.16407 0 5.40689 0 8.17129V18.1857C0 20.9501 2.13304 23.1929 4.76214 23.1929H8.92901C9.25641 23.1929 9.52428 22.9113 9.52428 22.567Z" fill="white"/>
</svg>
