<svg width="34" height="28" viewBox="0 0 34 28" fill="none" xmlns="http://www.w3.org/2000/svg">
<g clip-path="url(#clip0_300_1060)">
<path d="M26.775 19.2505H7.24625C7.0125 19.2505 6.82125 19.4473 6.82125 19.688L6.81594 22.313C6.81594 22.5536 7.00719 22.7505 7.24094 22.7505H26.775C27.0088 22.7505 27.2 22.5536 27.2 22.313V19.688C27.2 19.4473 27.0088 19.2505 26.775 19.2505ZM26.775 24.5005H7.23031C6.99656 24.5005 6.80531 24.6973 6.80531 24.938L6.8 27.563C6.8 27.8036 6.99125 28.0005 7.225 28.0005H26.775C27.0088 28.0005 27.2 27.8036 27.2 27.563V24.938C27.2 24.6973 27.0088 24.5005 26.775 24.5005ZM26.775 14.0005H7.25688C7.02313 14.0005 6.83188 14.1973 6.83188 14.438L6.82656 17.063C6.82656 17.3036 7.01781 17.5005 7.25156 17.5005H26.775C27.0088 17.5005 27.2 17.3036 27.2 17.063V14.438C27.2 14.1973 27.0088 14.0005 26.775 14.0005ZM32.4328 6.39891L17.9775 0.202811C17.6668 0.0701277 17.3337 0.00183105 16.9973 0.00183105C16.661 0.00183105 16.3279 0.0701277 16.0172 0.202811L1.56719 6.39891C0.621563 6.80906 0 7.76062 0 8.82156V27.563C0 27.8036 0.19125 28.0005 0.425 28.0005H4.675C4.90875 28.0005 5.1 27.8036 5.1 27.563V14.0005C5.1 13.038 5.87563 12.2505 6.83188 12.2505H27.1681C28.1244 12.2505 28.9 13.038 28.9 14.0005V27.563C28.9 27.8036 29.0913 28.0005 29.325 28.0005H33.575C33.8088 28.0005 34 27.8036 34 27.563V8.82156C34 7.76062 33.3784 6.80906 32.4328 6.39891Z" fill="#7CBB71"/>
</g>
<defs>
<clipPath id="clip0_300_1060">
<rect width="34" height="28" fill="white"/>
</clipPath>
</defs>
</svg>
