<svg width="39" height="32" viewBox="0 0 39 32" fill="none" xmlns="http://www.w3.org/2000/svg">
<path d="M29.5625 21.2486H9.45937C9.21875 21.2486 9.02187 21.4455 9.02187 21.6861L9.01641 24.3111C9.01641 24.5518 9.21328 24.7486 9.45391 24.7486H29.5625C29.8031 24.7486 30 24.5518 30 24.3111V21.6861C30 21.4455 29.8031 21.2486 29.5625 21.2486ZM29.5625 26.4986H9.44297C9.20234 26.4986 9.00547 26.6955 9.00547 26.9361L9 29.5611C9 29.8018 9.19687 29.9986 9.4375 29.9986H29.5625C29.8031 29.9986 30 29.8018 30 29.5611V26.9361C30 26.6955 29.8031 26.4986 29.5625 26.4986ZM29.5625 15.9986H9.47031C9.22969 15.9986 9.03281 16.1955 9.03281 16.4361L9.02734 19.0611C9.02734 19.3018 9.22422 19.4986 9.46484 19.4986H29.5625C29.8031 19.4986 30 19.3018 30 19.0611V16.4361C30 16.1955 29.8031 15.9986 29.5625 15.9986ZM35.3867 8.39707L20.5062 2.20098C20.1864 2.0683 19.8435 2 19.4973 2C19.151 2 18.8081 2.0683 18.4883 2.20098L3.61328 8.39707C2.63984 8.80723 2 9.75879 2 10.8197V29.5611C2 29.8018 2.19687 29.9986 2.4375 29.9986H6.8125C7.05313 29.9986 7.25 29.8018 7.25 29.5611V15.9986C7.25 15.0361 8.04844 14.2486 9.03281 14.2486H29.9672C30.9516 14.2486 31.75 15.0361 31.75 15.9986V29.5611C31.75 29.8018 31.9469 29.9986 32.1875 29.9986H36.5625C36.8031 29.9986 37 29.8018 37 29.5611V10.8197C37 9.75879 36.3602 8.80723 35.3867 8.39707V8.39707Z" fill="#666666"/>
</svg>
