<svg width="32" height="32" viewBox="0 0 32 32" fill="none" xmlns="http://www.w3.org/2000/svg">
<path d="M24.05 21.2486H7.9675C7.775 21.2486 7.6175 21.4455 7.6175 21.6861L7.61313 24.3111C7.61313 24.5518 7.77063 24.7486 7.96313 24.7486H24.05C24.2425 24.7486 24.4 24.5518 24.4 24.3111V21.6861C24.4 21.4455 24.2425 21.2486 24.05 21.2486ZM24.05 26.4986H7.95438C7.76188 26.4986 7.60438 26.6955 7.60438 26.9361L7.6 29.5611C7.6 29.8018 7.7575 29.9986 7.95 29.9986H24.05C24.2425 29.9986 24.4 29.8018 24.4 29.5611V26.9361C24.4 26.6955 24.2425 26.4986 24.05 26.4986ZM24.05 15.9986H7.97625C7.78375 15.9986 7.62625 16.1955 7.62625 16.4361L7.62187 19.0611C7.62187 19.3018 7.77937 19.4986 7.97187 19.4986H24.05C24.2425 19.4986 24.4 19.3018 24.4 19.0611V16.4361C24.4 16.1955 24.2425 15.9986 24.05 15.9986ZM28.7094 8.39707L16.805 2.20098C16.5491 2.0683 16.2748 2 15.9978 2C15.7208 2 15.4465 2.0683 15.1906 2.20098L3.29062 8.39707C2.51188 8.80723 2 9.75879 2 10.8197V29.5611C2 29.8018 2.1575 29.9986 2.35 29.9986H5.85C6.0425 29.9986 6.2 29.8018 6.2 29.5611V15.9986C6.2 15.0361 6.83875 14.2486 7.62625 14.2486H24.3737C25.1612 14.2486 25.8 15.0361 25.8 15.9986V29.5611C25.8 29.8018 25.9575 29.9986 26.15 29.9986H29.65C29.8425 29.9986 30 29.8018 30 29.5611V10.8197C30 9.75879 29.4881 8.80723 28.7094 8.39707V8.39707Z" fill="#666666"/>
</svg>
